<?xml version="1.0" standalone="no"?>
<!DOCTYPE svg PUBLIC "-//W3C//DTD SVG 20010904//EN"
 "http://www.w3.org/TR/2001/REC-SVG-20010904/DTD/svg10.dtd">
<svg version="1.0" xmlns="http://www.w3.org/2000/svg"
 width="600.000000pt" height="500.000000pt" viewBox="0 0 600.000000 500.000000"
 preserveAspectRatio="xMidYMid meet">

<g transform="translate(0.000000,500.000000) scale(0.100000,-0.100000)"
fill="#000000" stroke="none">
<path d="M0 2495 l0 -2495 3000 0 3000 0 0 2495 0 2495 -3000 0 -3000 0 0
-2495z m3427 973 c367 -244 470 -318 383 -273 -17 9 -38 14 -46 11 -8 -3 -14
1 -14 10 0 11 -5 14 -16 10 -12 -5 -15 -2 -10 9 3 9 2 13 -3 10 -12 -7 -56 13
-105 47 -21 16 -45 28 -53 28 -7 0 -13 4 -13 9 0 9 -87 36 -185 56 -105 22
-188 84 -201 149 -8 47 -46 86 -141 149 -43 27 -63 34 -63 19 0 -4 -15 -16
-34 -26 -48 -25 -59 -56 -41 -108 8 -23 13 -43 12 -43 -1 -1 -29 -22 -62 -47
-62 -47 -336 -234 -510 -349 l-100 -66 0 -444 0 -444 -71 -3 -71 -3 -6 212
c-8 252 -7 598 2 689 l6 65 75 51 c156 107 668 446 750 496 47 29 87 56 88 60
5 10 -35 35 429 -274z m-357 80 c27 -18 50 -36 50 -40 0 -9 -97 49 -105 63
-10 16 4 10 55 -23z m212 -257 c241 -162 329 -225 283 -203 -11 6 -51 31 -88
56 -37 25 -98 62 -135 82 -93 52 -216 125 -222 134 -3 3 -22 18 -42 32 -21 13
-36 27 -34 29 2 2 -8 5 -22 6 -32 2 -52 -13 -52 -37 0 -27 -109 -116 -313
-255 l-192 -130 -3 -417 -2 -418 -60 0 -60 0 0 435 0 435 298 196 c322 213
361 237 379 230 7 -3 126 -81 265 -175z m-224 44 c20 -14 34 -25 30 -25 -9 0
-78 41 -78 46 0 9 12 3 48 -21z m592 -174 c9 -12 65 -35 79 -32 8 1 10 -2 5
-10 -5 -9 -2 -10 10 -6 14 6 17 3 12 -8 -3 -9 -2 -13 4 -10 6 3 25 -4 43 -17
17 -12 38 -21 46 -20 7 2 29 -11 47 -29 l34 -33 0 -256 c0 -224 -2 -259 -17
-280 -26 -37 -45 -49 -70 -43 -14 3 -23 1 -23 -7 0 -6 -4 -9 -9 -6 -5 4 -11 1
-13 -6 -3 -7 -10 9 -17 35 -11 36 -13 116 -9 338 l5 291 -119 79 c-65 44 -118
81 -118 84 0 5 103 -54 110 -64z m-297 -20 c37 -22 80 -41 96 -41 15 0 36 -9
46 -20 10 -11 26 -20 35 -20 10 0 23 -7 30 -15 9 -11 16 -12 25 -5 9 8 15 8
20 0 3 -5 1 -10 -5 -10 -6 0 -9 -4 -5 -10 3 -5 12 -7 20 -3 9 3 15 -1 16 -8 0
-8 4 -5 8 6 16 38 22 -83 19 -324 -2 -176 -6 -235 -15 -239 -7 -2 -13 -10 -13
-18 0 -12 -50 -14 -314 -14 -172 0 -326 -4 -342 -9 -16 -5 -53 -11 -81 -14
l-53 -4 0 268 0 269 44 0 c80 0 76 13 76 -226 l0 -214 285 0 285 0 2 235 c1
129 2 245 2 257 1 17 -27 41 -127 109 -168 114 -184 129 -54 50z m227 -81 c0
-5 -5 -10 -11 -10 -5 0 -7 5 -4 10 3 6 8 10 11 10 2 0 4 -4 4 -10z m-851 -433
c-2 -166 1 -308 5 -315 5 -9 127 -12 516 -12 279 0 515 3 524 6 8 3 12 13 9
22 -4 14 -3 14 5 3 7 -10 7 -21 1 -33 -9 -17 -37 -18 -411 -20 l-402 -3 -11
-40 c-17 -68 -9 -65 -210 -65 l-184 0 0 380 -1 380 81 0 81 0 -3 -303z m921
-228 c0 -5 -102 -8 -237 -7 -181 1 -214 3 -138 8 152 10 375 9 375 -1z m58
-218 c9 -5 -3 -10 -36 -15 -63 -8 -403 -7 -457 2 -40 6 -40 6 -10 13 44 10
488 10 503 0z m219 -5 c-5 -14 -79 -20 -137 -10 -40 6 -42 8 -20 15 39 12 161
8 157 -5z m-1978 -223 c-1 -47 -16 -100 -19 -68 -1 11 -4 15 -6 8 -3 -7 -11
-10 -17 -7 -9 3 -13 -18 -14 -71 -1 -41 2 -75 6 -75 4 0 8 -26 9 -57 1 -31 5
-59 7 -62 3 -2 20 -6 37 -7 30 -3 31 -2 9 7 -13 5 -22 12 -19 15 3 3 49 6 102
8 87 3 96 1 96 -15 0 -10 -8 -23 -17 -29 -17 -11 -17 -11 0 -6 9 3 17 1 17 -4
0 -6 -56 -10 -140 -10 l-140 0 0 197 c0 108 3 194 6 190 4 -3 13 0 21 8 8 8
25 15 39 15 21 0 24 -4 23 -37z m578 22 c37 -11 62 -28 97 -65 46 -49 46 -49
46 -121 0 -68 -18 -130 -42 -145 -5 -4 -2 8 7 26 19 37 28 143 14 174 -10 21
-10 21 -6 0 6 -31 -11 -126 -23 -134 -6 -4 -10 -11 -8 -16 4 -13 -25 -54 -38
-54 -7 0 -14 -7 -18 -15 -7 -19 4 -19 32 1 12 8 22 11 22 6 0 -4 -17 -17 -37
-27 -31 -16 -66 -20 -185 -23 l-148 -4 0 206 0 206 118 0 c76 0 136 -5 169
-15z m313 0 c13 -15 24 -150 14 -167 -3 -5 -12 -4 -20 3 -15 13 -15 13 -20
-51 -4 -60 -11 -123 -15 -135 -1 -5 -5 71 -9 170 -3 99 -4 183 -2 188 6 12 39
8 52 -8z m-1761 -8 c6 -8 8 -17 4 -20 -3 -4 1 -7 9 -7 9 0 18 10 21 21 5 19
10 21 44 14 50 -9 53 -12 53 -41 0 -24 -1 -25 -52 -17 -112 17 -211 -7 -238
-56 -15 -29 -12 -118 5 -150 15 -31 95 -71 140 -71 52 0 65 16 65 75 l0 55 40
0 40 0 0 -89 0 -90 -46 -7 c-78 -11 -205 0 -249 23 -51 27 -71 49 -90 102 -51
145 40 269 196 271 27 0 51 -6 58 -13z m536 -6 c28 -10 59 -22 70 -26 16 -7
15 -4 -5 13 -14 12 -20 21 -13 22 6 0 25 -12 43 -26 52 -44 77 -114 35 -98
-12 5 -14 0 -9 -24 8 -40 -12 -132 -35 -157 -10 -11 -21 -28 -24 -38 -6 -16
-5 -16 18 -1 14 9 25 14 25 11 0 -15 -73 -47 -132 -57 -159 -28 -291 50 -298
175 -6 95 -1 114 38 156 20 22 55 46 77 54 55 20 150 18 210 -4z m1545 2 c0
-13 3 -14 12 -5 34 34 38 17 38 -188 l0 -200 -31 0 c-24 0 -29 3 -21 13 7 8
10 75 9 180 -1 140 -3 165 -14 151 -11 -16 -13 -13 -13 24 0 23 5 42 10 42 6
0 10 -8 10 -17z m499 -3 c24 -11 49 -20 55 -20 18 0 63 -50 75 -83 15 -39 13
-124 -3 -170 -31 -85 -96 -119 -225 -119 -180 0 -249 70 -239 243 4 69 5 73
43 105 74 63 207 83 294 44z m652 -19 c-7 -4 -10 -50 -10 -124 1 -105 -2 -121
-25 -171 -31 -65 -63 -81 -171 -80 -55 0 -82 5 -120 24 -76 38 -85 64 -85 238
l0 142 33 0 32 0 -2 -132 c-1 -157 8 -191 61 -213 77 -32 186 -9 213 45 8 16
13 73 13 163 l0 139 30 -7 c21 -5 30 -3 31 7 1 7 3 5 6 -6 3 -10 0 -22 -6 -25z
m428 33 c21 -5 31 -12 31 -25 0 -15 -6 -18 -32 -15 -18 3 -68 8 -110 12 -74 6
-87 12 -71 27 8 9 140 9 182 1z m469 -11 c-3 -16 -20 -19 -133 -23 -114 -4
-130 -7 -127 -22 1 -9 -1 -19 -6 -22 -5 -3 -6 -24 -3 -48 l6 -43 115 -3 c135
-3 148 -6 129 -28 -11 -13 -34 -15 -136 -12 -93 2 -123 0 -123 -9 0 -19 -17
-16 -26 5 -4 9 -8 63 -8 119 l-1 103 158 0 c146 0 158 -1 155 -17z m-766 -92
c-2 -36 0 -42 16 -39 11 2 27 -3 36 -11 12 -10 54 -17 119 -21 113 -8 141 -19
157 -65 l10 -30 -20 25 c-12 16 -20 20 -20 11 0 -11 -3 -10 -13 3 -10 14 -35
20 -113 26 -98 7 -144 20 -144 40 0 6 -7 10 -16 10 -15 0 -15 -2 0 -25 22 -33
3 -32 -23 1 -21 26 -30 102 -14 118 16 16 28 -4 25 -43z m-1497 -81 c-3 -5
-24 -10 -46 -10 -21 0 -39 5 -39 10 0 6 21 10 46 10 27 0 43 -4 39 -10z m51
-30 l-140 -5 3 -56 c1 -31 -1 -73 -4 -93 -6 -29 -12 -36 -31 -36 -12 0 -26 5
-29 10 -3 6 4 10 17 10 22 0 23 3 23 80 0 61 4 83 15 90 8 5 76 9 150 8 l135
-2 -139 -6z m1511 4 c-3 -3 -12 -4 -19 -1 -8 3 -5 6 6 6 11 1 17 -2 13 -5z
m141 -11 c-15 -2 -42 -2 -60 0 -18 2 -6 4 27 4 33 0 48 -2 33 -4z m82 -107 c0
-22 -29 -46 -53 -45 -19 0 -19 2 5 10 15 6 30 19 33 30 7 22 15 25 15 5z
m-158 -36 c37 0 69 -4 73 -10 6 -10 -75 -7 -158 5 -31 5 -47 4 -47 -3 0 -6 21
-14 48 -17 76 -10 82 -15 13 -10 -67 4 -87 14 -78 38 5 12 14 13 44 6 21 -5
68 -9 105 -9z m368 10 c0 -6 50 -10 129 -10 121 0 170 -10 118 -24 -38 -10
-202 -7 -236 5 -28 10 -44 39 -21 39 6 0 10 -4 10 -10z m-287 -47 c-7 -2 -19
-2 -25 0 -7 3 -2 5 12 5 14 0 19 -2 13 -5z m-870 -134 c-7 -7 0 -29 24 -75 19
-35 30 -64 24 -64 -6 0 -15 9 -21 20 -6 11 -20 20 -30 20 -11 0 -20 5 -20 10
0 6 7 10 15 10 9 0 12 6 9 15 -10 24 -19 18 -43 -32 -13 -27 -26 -43 -28 -37
-5 15 57 144 70 144 8 0 8 -3 0 -11z m-2097 -49 c20 -22 40 -40 45 -40 5 0 9
18 9 40 0 22 5 40 10 40 6 0 10 -25 10 -55 0 -66 -15 -71 -56 -20 -15 19 -31
35 -36 35 -4 0 -8 -16 -8 -35 0 -19 -4 -35 -10 -35 -5 0 -10 25 -10 55 0 30 2
55 5 55 3 0 21 -18 41 -40z m141 -26 c1 -55 -10 -72 -21 -31 -8 30 -8 82 1 90
12 13 18 -5 20 -59z m1411 50 c26 -18 30 -75 7 -94 -23 -19 -86 -14 -108 8
-21 22 -15 67 10 77 13 4 14 3 3 -10 -19 -23 -4 -62 28 -73 38 -13 62 1 62 36
0 35 -16 52 -49 53 -24 0 -24 1 -6 9 28 12 28 12 53 -6z m139 10 c18 -5 21
-13 21 -52 -1 -54 -11 -72 -43 -72 -46 0 -55 10 -55 61 0 60 21 78 77 63z
m-1417 -23 c-15 -29 -12 -59 8 -70 9 -6 12 -11 5 -11 -16 0 -43 28 -43 46 0
21 19 54 31 54 6 0 6 -7 -1 -19z m260 -41 c0 -10 -6 -22 -13 -28 -10 -9 -12
-4 -9 24 2 19 0 40 -4 47 -5 7 -1 4 9 -6 9 -11 17 -27 17 -37z m660 -5 l-7
-50 -2 60 c0 34 3 55 8 50 4 -6 5 -32 1 -60z m113 4 l18 -32 13 24 c22 43 41
69 48 69 5 0 8 -25 8 -56 0 -37 -4 -53 -11 -48 -6 3 -8 17 -5 29 10 39 -13 39
-31 1 -9 -20 -21 -36 -25 -36 -5 0 -19 17 -31 38 l-22 37 -3 -38 c-2 -20 -7
-35 -13 -32 -13 8 -11 62 2 87 13 24 16 21 52 -43z m477 6 c0 -30 -4 -55 -10
-55 -5 0 -10 25 -10 55 0 30 5 55 10 55 6 0 10 -25 10 -55z m70 5 l0 -50 36 0
c21 0 33 -4 29 -10 -3 -5 -24 -10 -46 -10 l-39 0 0 60 c0 33 4 60 10 60 6 0
10 -22 10 -50z m127 -9 c2 -28 -1 -52 -7 -56 -6 -4 -10 16 -10 56 0 72 11 72
17 0z m301 36 c2 -10 -4 -25 -14 -32 -18 -13 -18 -14 -1 -32 26 -30 20 -40 -8
-13 -28 27 -32 45 -10 54 26 10 16 26 -15 26 -29 0 -30 -1 -30 -51 0 -31 -4
-48 -10 -44 -5 3 -10 31 -10 61 l0 55 47 -3 c37 -2 49 -7 51 -21z m72 -37 c0
-27 -4 -52 -10 -55 -6 -4 -10 17 -10 55 0 38 4 59 10 55 6 -3 10 -28 10 -55z
m160 40 c54 -54 -19 -128 -90 -90 -28 15 -36 67 -14 91 23 25 78 25 104 -1z
m95 4 c-16 -12 -18 -18 -7 -34 13 -22 3 -27 -16 -8 -26 26 -11 56 28 57 11 0
10 -4 -5 -15z m-2189 -39 c-1 -39 -3 -43 -13 -28 -16 21 -16 46 -1 61 7 7 13
12 13 12 1 0 1 -20 1 -45z m174 25 c-6 -12 -8 -30 -4 -42 4 -14 2 -18 -5 -14
-15 9 -14 49 1 64 18 18 20 15 8 -8z m153 -37 c-8 -57 -19 -47 -15 12 2 26 8
43 13 38 4 -4 5 -27 2 -50z m69 17 c-2 -22 -8 -37 -13 -34 -12 7 -11 31 1 55
15 27 16 24 12 -21z m165 8 c-3 -7 -5 -2 -5 12 0 14 2 19 5 13 2 -7 2 -19 0
-25z m-52 11 c11 -16 -3 -56 -21 -63 -14 -5 -15 -4 -4 9 7 8 10 26 8 40 -5 25
5 34 17 14z m-575 -49 c0 -11 -4 -20 -9 -20 -7 0 -8 17 -2 38 4 10 11 -2 11
-18z m720 6 c0 -8 -4 -18 -10 -21 -5 -3 -10 3 -10 14 0 12 5 21 10 21 6 0 10
-6 10 -14z m1600 -21 c0 -14 -30 -29 -39 -19 -3 4 0 9 7 11 6 3 12 11 12 19 0
9 5 12 10 9 6 -3 10 -12 10 -20z m-75 -15 c3 -5 2 -10 -4 -10 -5 0 -13 5 -16
10 -3 6 -2 10 4 10 5 0 13 -4 16 -10z"/>
<path d="M1886 1635 c4 -8 8 -15 10 -15 2 0 4 7 4 15 0 8 -4 15 -10 15 -5 0
-7 -7 -4 -15z"/>
<path d="M2320 1780 l0 -140 63 0 c82 0 134 16 169 50 25 25 28 36 28 92 0
107 -41 138 -180 138 l-80 0 0 -140z"/>
<path d="M1429 1897 c-65 -44 -71 -160 -11 -220 26 -26 40 -31 89 -35 68 -4
124 16 149 53 26 39 24 136 -2 172 -30 40 -61 53 -130 53 -47 0 -69 -5 -95
-23z"/>
<path d="M3460 1918 c-60 -31 -82 -74 -77 -151 5 -89 55 -143 142 -153 64 -8
127 9 168 46 30 26 32 33 35 108 4 77 3 80 -28 115 -53 60 -159 76 -240 35z"/>
<path d="M3324 1396 c-3 -8 -4 -27 -2 -43 2 -22 9 -29 31 -31 19 -2 27 1 27
13 0 8 -7 18 -15 21 -14 6 -13 8 1 19 9 6 14 17 10 23 -10 17 -46 15 -52 -2z"/>
<path d="M4111 1381 c-25 -46 2 -76 55 -62 25 6 29 12 29 42 0 32 -2 34 -37
37 -28 2 -39 -1 -47 -17z"/>
</g>
</svg>
